PathFileType	4	(X/Y/Z)	C:/Users/beibeiliu/ov580/test_trc/capture2\sequence.36_training_dense_right.trc
DataRate	CameraRate	NumFrames	NumMarkers	Units	OrigDataRate	OrigDataStartFrame	OrigNumFrames
120	120	22	19	mm	120	1	374
Frame#	Time	ThumbCMC			ThumbMCP			ThumbIP			ThumbTip			IndexMCP			IndexPIP			IndexTip			MiddleMCP			MiddlePIP			MiddleTip			RingMCP			RingPIP			RingTip			PinkyMCP			PinkyPIP			PinkyTip			BackHand1			BackHand2			BackHand3	
		X0	Y0	Z0	X1	Y1	Z1	X2	Y2	Z2	X3	Y3	Z3	X4	Y4	Z4	X5	Y5	Z5	X6	Y6	Z6	X7	Y7	Z7	X8	Y8	Z8	X9	Y9	Z9	X10	Y10	Z10	X11	Y11	Z11	X12	Y12	Z12	X13	Y13	Z13	X14	Y14	Z14	X15	Y15	Z15	X16	Y16	Z16	X17	Y17	Z17	X18	Y18	Z18	
0	0	144.214	-3.84033	25.0191	120.235	-15.655	8.66948	106.731	-23.7879	-13.9677	96.5868	-30.191	-32.0553	156.508	-3.40832	-49.4357	151.567	-11.2384	-76.2971	147.561	-13.147	-96.6682	186.544	-4.85976	-54.162	185.395	-12.0532	-78.8085	191.876	-18.5512	-106.309	205.132	-10.9343	-48.1111	211.073	-17.3395	-71.5808	219.334	-22.7794	-96.6779	224.037	-18.3451	-32.4692	236.314	-24.7923	-49.1558	251.236	-24.9562	-64.5331	201.308	6.85583	-0.52369	198.94	16.0579	29.3603	169.622	15.0149	12.3744	
1	0.00833333	141.017	-5.5221	19.941	123.817	-17.7253	9.24944	107.523	-25.2662	-15.6063	92.8049	-30.7553	-28.5452	155.715	-5.24343	-49.3916	148.71	-10.8242	-75.7064	150.389	-15.1339	-100.504	181.755	-6.07747	-53.5175	183.948	-14.2864	-82.7558	190.342	-19.7356	-108.238	202.07	-11.6945	-50.5788	213.853	-18.4441	-67.9267	216.688	-23.79	-96.4072	222.115	-19.6297	-31.7547	235.858	-25.8311	-50.0952	247.568	-26.6681	-69.5358	199.914	5.33366	-0.325581	197.979	13.9633	29.104	168.121	14.5275	8.91333	
2	0.0166667	139.291	-5.72306	25.1107	123.448	-19.7898	6.85811	105.304	-26.0134	-14.2084	94.3403	-31.6026	-30.3919	155.553	-6.54106	-49.8446	147.834	-11.7933	-71.747	150.727	-15.4482	-97.1684	181.654	-8.41691	-58.442	183.006	-15.5956	-82.1273	190.186	-21.8302	-109.334	204.172	-13.2325	-48.6289	209.107	-19.6807	-68.2749	216.478	-26.0433	-94.7876	222.122	-19.7649	-33.0364	234.16	-27.7991	-47.5074	245.988	-27.4784	-65.5254	200.355	4.11858	-1.275	200.639	12.9593	26.5535	169.554	13.9472	10.4506	
3	0.025	137.594	-7.7005	22.3633	120.497	-20.5298	10.0052	104.977	-28.0129	-15.0596	90.7055	-33.8836	-29.616	152.761	-8.08107	-47.6218	146.784	-14.934	-75.5617	150.748	-17.7048	-98.4922	184.789	-10.0185	-55.7462	186.415	-18.3379	-82.4365	191.677	-25.0454	-106.82	202.067	-14.2453	-50.3808	210.205	-21.6936	-71.8615	214.354	-28.5053	-95.2743	221.025	-21.555	-31.5606	231.612	-29.3096	-45.835	248.194	-30.1905	-68.1048	196.922	4.47663	-1.77269	198.083	10.1495	29.6037	165.195	10.8495	7.02677	
4	0.0333333	136.245	-8.44185	21.5127	121.059	-22.1023	9.62714	104.154	-29.0602	-12.6634	91.0498	-36.1877	-29.7976	153.503	-9.88565	-50.9567	146.248	-15.3017	-72.0052	150.287	-20.0975	-97.1218	179.458	-10.6185	-52.4337	183.803	-20.7143	-81.8925	187.93	-26.126	-105.064	200.377	-16.4386	-44.9635	206.797	-23.8675	-72.2622	214.165	-29.5171	-96.3031	221.352	-23.6162	-28.0577	233.573	-30.735	-49.6172	247.925	-33.605	-67.8988	196.882	2.68322	1.94979	200.624	10.6292	29.6232	169.877	9.72772	11.5461	
5	0.0416667	136.667	-10.1496	21.3016	122.527	-23.5973	9.5831	106.325	-30.3612	-8.07878	92.8768	-36.8524	-26.4446	150.424	-11.3784	-48.4095	149.926	-17.5139	-74.1421	143.703	-20.7561	-98.9375	181.695	-11.8454	-51.8317	185.766	-20.1808	-77.8491	187.028	-27.2243	-102.997	199.6	-17.3651	-48.0667	209.38	-23.9265	-68.1736	211.376	-31.0442	-92.0236	223.448	-25.0464	-30.4836	230.368	-31.3509	-46.2937	249.707	-33.4312	-67.5997	200.961	0.144741	0.238166	197.749	8.15915	27.3831	169.463	8.0101	8.23215	
6	0.05	138.614	-11.8694	23.476	118.64	-23.0467	12.1228	101.246	-30.626	-9.55065	89.3595	-37.8991	-24.2457	151.235	-12.8243	-47.7919	144.331	-18.6785	-72.8305	148.952	-22.3487	-96.9507	178.262	-12.8279	-52.4712	182.393	-21.8651	-77.0904	186.854	-29.1043	-103.822	203.042	-18.3438	-46.6066	209.712	-25.6668	-67.3337	214.172	-32.3606	-90.7558	219.437	-25.8122	-28.0904	234.105	-34.4565	-46.0381	248.822	-35.6829	-67.0018	196.717	1.21649	3.19992	194.836	7.68565	30.2558	166.579	6.64833	9.83705	
7	0.0583333	137.26	-11.7829	28.4028	118.994	-24.1146	12.3156	102.837	-31.5927	-8.21867	89.6214	-38.2592	-26.0621	149.003	-12.8707	-47.3619	147.294	-20.652	-74.0691	146.36	-23.1086	-98.6899	180.02	-15.1748	-53.2757	182.183	-23.6804	-77.9279	189.488	-31.0052	-106.846	203.412	-20.3648	-46.4571	210.614	-27.2478	-67.7648	211.164	-32.737	-90.5386	219.205	-26.0762	-26.3331	229.613	-34.0118	-43.4317	247.909	-34.505	-63.3531	196.131	0.796148	-0.842979	195.265	8.36337	32.3613	163.883	7.54453	13.0163	
8	0.0666667	139.955	-14.0602	24.3202	119.273	-25.5704	13.5659	105.481	-32.8321	-6.01718	90.8391	-39.7571	-22.8642	150.975	-14.7384	-47.7726	146.077	-20.0634	-71.581	148.191	-23.2966	-93.3604	180.384	-15.3157	-51.2887	182.99	-25.3262	-79.2079	185.661	-31.2062	-100.435	199.58	-19.3269	-42.4829	206.821	-27.4648	-64.6835	213.327	-34.129	-92.4344	221.031	-26.7503	-27.0517	229.64	-35.2215	-45.6608	247.649	-36.6481	-59.7588	200.249	0.0950226	1.71323	198.669	6.39256	30.2568	167.366	5.70729	14.9156	
9	0.075	137.54	-12.3515	29.2454	118.722	-26.6232	13.4871	103.894	-32.9027	-5.56376	90.1138	-39.704	-24.4807	153.039	-14.886	-47.5137	144.814	-21.0937	-67.4109	146.794	-25.2598	-95.473	177.158	-15.6891	-53.7621	182.079	-25.5505	-78.5719	184.246	-30.8932	-101.107	200.591	-20.3283	-42.0397	205.753	-28.2717	-64.4042	211.435	-35.2588	-90.4626	223.008	-28.0676	-25.9713	230.698	-35.5529	-44.1382	244.021	-35.3397	-62.6648	194.996	-2.60426	4.6823	198.583	4.4974	29.6835	169.373	6.88595	15.6246	
10	0.0833333	140.448	-12.9492	25.6231	116.788	-25.3723	11.1916	100.965	-33.8418	-7.06765	90.9093	-41.5852	-26.0398	151.616	-14.6482	-43.9816	144.749	-22.1362	-71.5918	150.163	-24.654	-93.3531	180.34	-17.1802	-52.6165	185.142	-24.7179	-74.9259	187.424	-32.4632	-101.448	203.13	-21.9839	-45.4378	207.983	-28.942	-65.2144	212.664	-36.4181	-90.3123	223.797	-30.1426	-25.7818	230.808	-36.8853	-44.1365	246.757	-37.2266	-65.2813	195.976	-2.71228	5.99529	197.883	6.26023	32.8599	168.916	4.17879	15.9861	
11	0.0916667	139.494	-12.8729	29.696	122.674	-26.0339	12.3834	102.86	-34.4129	-10.9702	89.3364	-41.2649	-27.8191	150.524	-15.9102	-46.4867	147.92	-22.3287	-71.3797	148.142	-26.0452	-95.9672	178.522	-17.0975	-49.7599	184.638	-25.8162	-76.6959	185.417	-32.5536	-102.396	203.001	-22.7144	-44.7524	209.571	-30.9854	-64.6324	212.47	-38.9691	-92.1307	220.833	-30.8447	-30.3586	233.649	-38.5797	-46.1433	248.438	-40.5352	-62.7946	199.418	-4.63634	1.04924	198.188	3.98653	31.3953	166.086	3.3488	11.4853	
12	0.1	137.693	-11.9809	28.7565	121.912	-25.6526	12.2275	105.342	-33.128	-6.07283	92.2329	-39.2297	-24.2921	150.378	-14.6538	-48.3776	148.872	-22.2417	-70.7862	146.078	-25.4728	-91.0934	179.541	-17.7061	-54.2321	187.247	-28.3524	-77.9893	189.215	-34.9523	-101.495	202.336	-23.8996	-45.5103	211.557	-32.9214	-67.0707	211.321	-38.8539	-91.4562	223.491	-31.4651	-28.2366	231.381	-39.3898	-44.9468	245.494	-41.9394	-63.6964	198.577	-2.83733	2.48291	198.735	2.34222	31.4216	167.593	6.31285	15.1277	
13	0.108333	142.723	-11.9163	26.4069	121.604	-24.3169	12.1076	107.336	-30.3384	-8.04424	93.1155	-36.2973	-22.8658	155.856	-14.0263	-45.1337	151.397	-20.6001	-70.1844	148.38	-25.1052	-96.4336	185.454	-17.2202	-48.5542	187.606	-26.6241	-73.345	191.137	-35.1901	-102.894	206.125	-25.1008	-45.0059	206.241	-32.3622	-64.7241	213.503	-39.6429	-86.7295	224.062	-32.4359	-23.4378	233.743	-41.7923	-44.6471	243.301	-43.1749	-61.2099	199.525	-3.77086	6.77114	200.736	2.02824	31.344	168.878	7.26078	16.0653	
14	0.116667	141.93	-9.37985	27.5505	119.687	-20.084	15.0684	107.03	-26.4056	-7.22707	91.9974	-31.6928	-27.9493	154.511	-10.1371	-47.4431	152.202	-18.7718	-71.4077	148.652	-22.6432	-92.8134	182.095	-16.1684	-49.4655	188.4	-25.7351	-71.4235	189.707	-34.2849	-100.695	207.005	-25.2485	-41.9895	210.075	-33.4548	-66.5084	212.464	-41.3193	-90.5595	222.277	-34.0133	-23.1301	234.217	-42.5167	-39.4778	245.71	-46.6322	-63.1264	204.475	-5.66412	7.23348	200.889	2.60264	34.7327	171.961	5.70257	14.4619	
15	0.125	141.937	-4.47306	27.9627	122.505	-16.3456	14.4621	106.677	-21.2603	-6.23171	95.3031	-26.7202	-24.385	156.065	-5.60737	-45.3032	150.621	-13.9069	-70.4281	148.59	-18.739	-92.5245	184.749	-14.9085	-50.2853	184.793	-23.9989	-75.1642	187.171	-32.0639	-98.7545	203.167	-23.531	-42.7611	212.426	-33.2233	-60.9665	213.844	-42.3464	-87.9528	222.49	-35.3269	-23.0665	231.527	-45.3666	-40.3875	242.045	-50.6063	-62.4441	207.855	-5.34609	9.55875	207.371	0.713211	34.3929	175.255	7.96962	19.4898	
16	0.133333	147.091	-1.69586	29.8941	122.12	-9.44851	13.8736	110.211	-15.7708	-10.4537	96.4721	-20.2335	-27.7504	159.079	-0.794997	-45.3067	152.057	-7.45925	-68.3616	153.654	-16.452	-94.1576	186.043	-10.1179	-46.2707	186.091	-20.81	-71.7202	190.775	-33.592	-96.3954	203.715	-22.3616	-37.3489	208.806	-33.674	-63.9662	209.644	-42.775	-89.1449	221.121	-36.3518	-20.3194	227.188	-48.0807	-44.4172	236.376	-55.8456	-65.686	208.032	-5.16375	11.3244	209.427	-0.200007	39.5195	179.586	9.46896	22.1005	
17	0.141667	146.607	5.0428	30.0325	126.031	-4.75061	11.808	109.249	-6.64878	-6.71927	99.3435	-10.2924	-25.4632	163.997	3.43152	-44.3184	157.149	-3.28962	-67.5571	154.447	-11.8755	-89.708	189.355	-9.64725	-47.3267	187.493	-20.1886	-73.5614	183.743	-30.6836	-98.0324	202.864	-20.4641	-39.9779	207.543	-34.5308	-65.2797	202.578	-41.9796	-87.0015	217.678	-36.1556	-24.9205	222.676	-49.2645	-46.0018	230.583	-60.3279	-65.4485	210.583	-6.72035	12.6964	210.651	-2.21434	43.1783	180.232	12.951	23.8915	
18	0.15	147.676	11.3318	36.4323	127.146	4.19351	13.5268	110.883	3.49431	-5.35257	100.605	1.57945	-27.2728	164.549	11.118	-39.3985	159.441	3.60318	-63.3835	155.731	-9.58431	-90.0776	187.559	-3.95084	-47.1067	186.42	-16.381	-68.4104	179.947	-33.3947	-95.8642	205.012	-20.781	-35.3754	202.677	-28.9988	-61.5708	192.708	-41.6935	-87.4095	213.628	-35.4788	-21.4453	214.202	-47.2625	-49.0742	212.512	-60.8641	-67.4879	207.697	-5.96064	12.323	207.746	-5.37587	42.4394	186.525	13.7047	25.6715	
19	0.158333	151.838	16.3876	35.2375	132.911	11.6049	13.5737	118.731	13.0274	-5.08263	107.254	13.5279	-28.1577	169.272	15.8036	-35.2848	160.969	9.46512	-62.7384	151.489	-2.09924	-83.9065	191.207	-3.93113	-45.0008	182.118	-13.6568	-70.1866	166.468	-29.8516	-93.2553	202.028	-17.8637	-39.8215	194.162	-24.9696	-64.8168	175.69	-40.0119	-86.1526	207.032	-34.295	-22.051	205.181	-45.1004	-48.9937	187.933	-54.3446	-72.4738	208.258	-7.43868	11.3424	211.151	-8.9994	40.5727	191.012	13.8048	29.7098	
20	0.166667	159.035	19.4608	33.8874	137.834	21.5895	17.2442	121.839	28.5321	-6.90477	118.89	24.4637	-30.7496	178.43	16.9122	-36.692	165.608	15.4385	-62.677	150.091	1.24308	-81.1632	191.419	2.54353	-41.1561	180.895	-8.13817	-68.8031	150.445	-21.8658	-86.3501	199.32	-15.9793	-39.7981	185.595	-23.6393	-66.0758	162.983	-36.8055	-77.805	204.208	-38.4744	-25.8198	194.454	-46.2714	-50.0341	167.98	-52.5916	-66.1953	211.627	-15.6558	16.1758	212.638	-15.3923	43.6556	193.031	16.486	25.5591	
21	0.175	164.027	26.8329	33.8594	144.247	28.7876	11.915	130.771	39.5193	-10.1714	125.609	37.2723	-31.0895	183.832	21.2664	-39.4846	172.384	19.821	-61.9006	144.945	5.57656	-78.1596	192.376	2.70714	-44.1472	171.791	-1.5344	-69.7923	140.278	-13.0813	-74.8531	197.059	-18.2385	-41.9484	180.147	-22.4975	-63.0984	148.26	-27.941	-68.658	196.395	-36.8562	-30.4373	179.656	-39.199	-51.7818	150.379	-38.2622	-58.8636	208.158	-13.8568	16.251	208.31	-18.562	43.2832	200.095	11.7392	29.375	
